# xmcd
# 
# Track frame offsets:
#     150
#     17304
#     34828
#     53164
#     66371
#     83521
#     99558
#     116428
#     131994
#     147292
# 
# Disc length: 2096
# 
# Revision: 4
# Processed by: cddbd v1.5.2PL0 Copyright (c) Steve Scherf et al.
# Submitted via: fre:ac v1.0.31
# 
DISCID=81082e0a
DTITLE=Bruno Mars - Unorthodox Jukebox
DYEAR=2012
DGENRE=Pop
TTITLE0=Young Girls
TTITLE1=Locked Out Of Heaven
TTITLE2=Gorilla
TTITLE3=Treasure
TTITLE4=Moonshine
TTITLE5=When I Was Your Man
TTITLE6=Natalie
TTITLE7=Show Me
TTITLE8=Money Make Her Smile
TTITLE9=If I Knew
EXTD=
EXTT0=
EXTT1=
EXTT2=
EXTT3=
EXTT4=
EXTT5=
EXTT6=
EXTT7=
EXTT8=
EXTT9=
PLAYORDER=
